<?xml version="1.0" encoding="UTF-8" standalone="no"?>
<!DOCTYPE svg PUBLIC "-//W3C//DTD SVG 1.1//EN"
 "http://www.w3.org/Graphics/SVG/1.1/DTD/svg11.dtd">
<!-- Generated by graphviz version 7.1.0 (0)
 -->
<!-- Pages: 1 -->
<svg width="321pt" height="252pt"
 viewBox="0.00 0.00 320.84 252.35" xmlns="http://www.w3.org/2000/svg" xmlns:xlink="http://www.w3.org/1999/xlink">
<g id="graph0" class="graph" transform="scale(1 1) rotate(0) translate(4 248.35)">
<polygon fill="white" stroke="none" points="-4,4 -4,-248.35 316.84,-248.35 316.84,4 -4,4"/>
<!-- jqt -->
<g id="node1" class="node">
<title>jqt</title>
<ellipse fill="none" stroke="black" cx="198.08" cy="-18" rx="27" ry="18"/>
<text text-anchor="middle" x="198.08" y="-14.3" font-family="Times,serif" font-size="14.00">jqt</text>
</g>
<!-- rhn -->
<g id="node2" class="node">
<title>rhn</title>
<ellipse fill="none" stroke="black" cx="278.44" cy="-47.01" rx="27" ry="18"/>
<text text-anchor="middle" x="278.44" y="-43.31" font-family="Times,serif" font-size="14.00">rhn</text>
</g>
<!-- jqt&#45;&gt;rhn -->
<g id="edge1" class="edge">
<title>jqt&#45;&gt;rhn</title>
<path fill="none" stroke="black" d="M222.19,-26.7C228.95,-29.14 236.43,-31.84 243.67,-34.45"/>
<polygon fill="black" stroke="black" points="242.33,-37.69 252.92,-37.8 244.71,-31.11 242.33,-37.69"/>
</g>
<!-- xhk -->
<g id="node3" class="node">
<title>xhk</title>
<ellipse fill="none" stroke="black" cx="247.36" cy="-25.13" rx="27" ry="18"/>
<text text-anchor="middle" x="247.36" y="-21.43" font-family="Times,serif" font-size="14.00">xhk</text>
</g>
<!-- jqt&#45;&gt;xhk -->
<g id="edge2" class="edge">
<title>jqt&#45;&gt;xhk</title>
<path fill="none" stroke="black" d="M224.74,-21.86C224.79,-21.87 224.83,-21.87 224.88,-21.88"/>
<polygon fill="black" stroke="black" points="213.11,-23.71 223.51,-21.68 214.12,-16.78 213.11,-23.71"/>
</g>
<!-- nvd -->
<g id="node4" class="node">
<title>nvd</title>
<ellipse fill="none" stroke="black" cx="130.33" cy="-67.55" rx="27" ry="18"/>
<text text-anchor="middle" x="130.33" y="-63.85" font-family="Times,serif" font-size="14.00">nvd</text>
</g>
<!-- jqt&#45;&gt;nvd -->
<g id="edge3" class="edge">
<title>jqt&#45;&gt;nvd</title>
<path fill="none" stroke="black" d="M179.57,-31.54C172.85,-36.46 165.1,-42.12 157.77,-47.48"/>
<polygon fill="black" stroke="black" points="156.05,-44.4 150.04,-53.13 160.18,-50.05 156.05,-44.4"/>
</g>
<!-- rhn&#45;&gt;xhk -->
<g id="edge12" class="edge">
<title>rhn&#45;&gt;xhk</title>
<path fill="none" stroke="black" d="M259.64,-33.78C259.59,-33.74 259.54,-33.71 259.49,-33.67"/>
<polygon fill="black" stroke="black" points="270.77,-37.33 260.58,-34.43 266.74,-43.05 270.77,-37.33"/>
</g>
<!-- hfx -->
<g id="node9" class="node">
<title>hfx</title>
<ellipse fill="none" stroke="black" cx="224.53" cy="-93.6" rx="27" ry="18"/>
<text text-anchor="middle" x="224.53" y="-89.9" font-family="Times,serif" font-size="14.00">hfx</text>
</g>
<!-- rhn&#45;&gt;hfx -->
<g id="edge13" class="edge">
<title>rhn&#45;&gt;hfx</title>
<path fill="none" stroke="black" d="M261.68,-61.49C257.89,-64.77 253.79,-68.31 249.74,-71.82"/>
<polygon fill="black" stroke="black" points="247.52,-69.11 242.24,-78.29 252.1,-74.4 247.52,-69.11"/>
</g>
<!-- bvb -->
<g id="node13" class="node">
<title>bvb</title>
<ellipse fill="none" stroke="black" cx="251.26" cy="-121.83" rx="27" ry="18"/>
<text text-anchor="middle" x="251.26" y="-118.13" font-family="Times,serif" font-size="14.00">bvb</text>
</g>
<!-- rhn&#45;&gt;bvb -->
<g id="edge14" class="edge">
<title>rhn&#45;&gt;bvb</title>
<path fill="none" stroke="black" d="M272,-64.74C268.91,-73.25 265.13,-83.66 261.64,-93.25"/>
<polygon fill="black" stroke="black" points="258.39,-91.95 258.27,-102.54 264.97,-94.34 258.39,-91.95"/>
</g>
<!-- xhk&#45;&gt;hfx -->
<g id="edge7" class="edge">
<title>xhk&#45;&gt;hfx</title>
<path fill="none" stroke="black" d="M241.36,-43.12C239.12,-49.86 236.51,-57.69 234.02,-65.14"/>
<polygon fill="black" stroke="black" points="230.73,-63.94 230.89,-74.53 237.37,-66.15 230.73,-63.94"/>
</g>
<!-- lhk -->
<g id="node12" class="node">
<title>lhk</title>
<ellipse fill="none" stroke="black" cx="65.46" cy="-96.15" rx="27" ry="18"/>
<text text-anchor="middle" x="65.46" y="-92.45" font-family="Times,serif" font-size="14.00">lhk</text>
</g>
<!-- nvd&#45;&gt;lhk -->
<g id="edge25" class="edge">
<title>nvd&#45;&gt;lhk</title>
<path fill="none" stroke="black" d="M107.64,-77.55C104.7,-78.85 101.63,-80.2 98.56,-81.56"/>
<polygon fill="black" stroke="black" points="97.37,-78.26 89.63,-85.5 100.19,-84.66 97.37,-78.26"/>
</g>
<!-- rsh -->
<g id="node5" class="node">
<title>rsh</title>
<ellipse fill="none" stroke="black" cx="98.89" cy="-226.35" rx="27" ry="18"/>
<text text-anchor="middle" x="98.89" y="-222.65" font-family="Times,serif" font-size="14.00">rsh</text>
</g>
<!-- lsr -->
<g id="node6" class="node">
<title>lsr</title>
<ellipse fill="none" stroke="black" cx="83.63" cy="-178.78" rx="27" ry="18"/>
<text text-anchor="middle" x="83.63" y="-175.08" font-family="Times,serif" font-size="14.00">lsr</text>
</g>
<!-- rsh&#45;&gt;lsr -->
<g id="edge4" class="edge">
<title>rsh&#45;&gt;lsr</title>
<path fill="none" stroke="black" d="M93.12,-208.37C93.05,-208.13 92.97,-207.9 92.89,-207.66"/>
<polygon fill="black" stroke="black" points="96.26,-206.69 89.87,-198.23 89.59,-208.83 96.26,-206.69"/>
</g>
<!-- frs -->
<g id="node7" class="node">
<title>frs</title>
<ellipse fill="none" stroke="black" cx="27" cy="-168" rx="27" ry="18"/>
<text text-anchor="middle" x="27" y="-164.3" font-family="Times,serif" font-size="14.00">frs</text>
</g>
<!-- rsh&#45;&gt;frs -->
<g id="edge5" class="edge">
<title>rsh&#45;&gt;frs</title>
<path fill="none" stroke="black" d="M81.49,-212.23C72.98,-205.33 62.58,-196.88 53.14,-189.22"/>
<polygon fill="black" stroke="black" points="55.64,-186.74 45.67,-183.15 51.22,-192.17 55.64,-186.74"/>
</g>
<!-- pzl -->
<g id="node8" class="node">
<title>pzl</title>
<ellipse fill="none" stroke="black" cx="166.6" cy="-157.67" rx="27" ry="18"/>
<text text-anchor="middle" x="166.6" y="-153.97" font-family="Times,serif" font-size="14.00">pzl</text>
</g>
<!-- rsh&#45;&gt;pzl -->
<g id="edge6" class="edge">
<title>rsh&#45;&gt;pzl</title>
<path fill="none" stroke="black" d="M113.92,-211.11C122.68,-202.22 133.92,-190.82 143.76,-180.84"/>
<polygon fill="black" stroke="black" points="146.03,-183.53 150.56,-173.95 141.04,-178.62 146.03,-183.53"/>
</g>
<!-- lsr&#45;&gt;lhk -->
<g id="edge26" class="edge">
<title>lsr&#45;&gt;lhk</title>
<path fill="none" stroke="black" d="M79.69,-160.85C77.42,-150.53 74.51,-137.3 71.91,-125.5"/>
<polygon fill="black" stroke="black" points="75.35,-124.83 69.78,-115.81 68.51,-126.33 75.35,-124.83"/>
</g>
<!-- frs&#45;&gt;lsr -->
<g id="edge31" class="edge">
<title>frs&#45;&gt;lsr</title>
<path fill="none" stroke="black" d="M53.33,-173.01C53.41,-173.03 53.5,-173.05 53.59,-173.06"/>
<polygon fill="black" stroke="black" points="45.53,-175.09 56.01,-173.52 46.84,-168.21 45.53,-175.09"/>
</g>
<!-- qnr -->
<g id="node11" class="node">
<title>qnr</title>
<ellipse fill="none" stroke="black" cx="91" cy="-130.44" rx="27" ry="18"/>
<text text-anchor="middle" x="91" y="-126.74" font-family="Times,serif" font-size="14.00">qnr</text>
</g>
<!-- frs&#45;&gt;qnr -->
<g id="edge32" class="edge">
<title>frs&#45;&gt;qnr</title>
<path fill="none" stroke="black" d="M47.6,-155.91C51.83,-153.43 56.36,-150.77 60.84,-148.14"/>
<polygon fill="black" stroke="black" points="62.28,-151.35 69.13,-143.27 58.74,-145.31 62.28,-151.35"/>
</g>
<!-- frs&#45;&gt;lhk -->
<g id="edge33" class="edge">
<title>frs&#45;&gt;lhk</title>
<path fill="none" stroke="black" d="M36.31,-150.61C40.7,-142.4 46.05,-132.42 50.96,-123.25"/>
<polygon fill="black" stroke="black" points="53.89,-125.19 55.52,-114.72 47.72,-121.88 53.89,-125.19"/>
</g>
<!-- pzl&#45;&gt;nvd -->
<g id="edge19" class="edge">
<title>pzl&#45;&gt;nvd</title>
<path fill="none" stroke="black" d="M159.44,-139.87C154.37,-127.28 147.47,-110.14 141.66,-95.71"/>
<polygon fill="black" stroke="black" points="145.03,-94.69 138.05,-86.72 138.53,-97.31 145.03,-94.69"/>
</g>
<!-- pzl&#45;&gt;lsr -->
<g id="edge18" class="edge">
<title>pzl&#45;&gt;lsr</title>
<path fill="none" stroke="black" d="M141.26,-164.12C134.57,-165.83 127.21,-167.7 120.06,-169.52"/>
<polygon fill="black" stroke="black" points="119.4,-166.07 110.58,-171.93 121.13,-172.86 119.4,-166.07"/>
</g>
<!-- pzl&#45;&gt;hfx -->
<g id="edge17" class="edge">
<title>pzl&#45;&gt;hfx</title>
<path fill="none" stroke="black" d="M180.63,-142.16C187.32,-134.77 195.47,-125.75 202.92,-117.5"/>
<polygon fill="black" stroke="black" points="205.51,-119.86 209.62,-110.09 200.32,-115.16 205.51,-119.86"/>
</g>
<!-- cmg -->
<g id="node10" class="node">
<title>cmg</title>
<ellipse fill="none" stroke="black" cx="154.78" cy="-119.74" rx="27" ry="18"/>
<text text-anchor="middle" x="154.78" y="-116.04" font-family="Times,serif" font-size="14.00">cmg</text>
</g>
<!-- cmg&#45;&gt;nvd -->
<g id="edge9" class="edge">
<title>cmg&#45;&gt;nvd</title>
<path fill="none" stroke="black" d="M146.64,-102.36C145.58,-100.1 144.47,-97.73 143.36,-95.35"/>
<polygon fill="black" stroke="black" points="146.57,-93.97 139.16,-86.4 140.24,-96.94 146.57,-93.97"/>
</g>
<!-- cmg&#45;&gt;qnr -->
<g id="edge8" class="edge">
<title>cmg&#45;&gt;qnr</title>
<path fill="none" stroke="black" d="M128.1,-124.22C127.99,-124.23 127.88,-124.25 127.77,-124.27"/>
<polygon fill="black" stroke="black" points="128.15,-120.66 118.86,-125.76 129.3,-127.56 128.15,-120.66"/>
</g>
<!-- cmg&#45;&gt;lhk -->
<g id="edge10" class="edge">
<title>cmg&#45;&gt;lhk</title>
<path fill="none" stroke="black" d="M129.43,-113.05C120.85,-110.78 111.09,-108.2 101.82,-105.76"/>
<polygon fill="black" stroke="black" points="102.91,-102.42 92.34,-103.25 101.12,-109.19 102.91,-102.42"/>
</g>
<!-- cmg&#45;&gt;bvb -->
<g id="edge11" class="edge">
<title>cmg&#45;&gt;bvb</title>
<path fill="none" stroke="black" d="M182.17,-120.34C191.54,-120.54 202.21,-120.77 212.31,-120.99"/>
<polygon fill="black" stroke="black" points="212.22,-124.48 222.29,-121.2 212.37,-117.49 212.22,-124.48"/>
</g>
<!-- qnr&#45;&gt;nvd -->
<g id="edge20" class="edge">
<title>qnr&#45;&gt;nvd</title>
<path fill="none" stroke="black" d="M101.54,-113.58C105.33,-107.52 109.7,-100.53 113.88,-93.85"/>
<polygon fill="black" stroke="black" points="116.62,-96.07 118.96,-85.73 110.69,-92.35 116.62,-96.07"/>
</g>
<!-- bvb&#45;&gt;xhk -->
<g id="edge15" class="edge">
<title>bvb&#45;&gt;xhk</title>
<path fill="none" stroke="black" d="M250.53,-103.64C249.97,-89.95 249.21,-70.89 248.56,-54.98"/>
<polygon fill="black" stroke="black" points="252.06,-54.93 248.16,-45.08 245.07,-55.21 252.06,-54.93"/>
</g>
<!-- bvb&#45;&gt;hfx -->
<g id="edge16" class="edge">
<title>bvb&#45;&gt;hfx</title>
<path fill="none" stroke="black" d="M236.65,-106.39C236.6,-106.34 236.55,-106.29 236.5,-106.24"/>
<polygon fill="black" stroke="black" points="246.81,-112.04 237.39,-107.18 241.73,-116.85 246.81,-112.04"/>
</g>
<!-- ntq -->
<g id="node14" class="node">
<title>ntq</title>
<ellipse fill="none" stroke="black" cx="285.84" cy="-76.86" rx="27" ry="18"/>
<text text-anchor="middle" x="285.84" y="-73.16" font-family="Times,serif" font-size="14.00">ntq</text>
</g>
<!-- ntq&#45;&gt;jqt -->
<g id="edge21" class="edge">
<title>ntq&#45;&gt;jqt</title>
<path fill="none" stroke="black" d="M266.8,-64.09C255.15,-56.28 240.02,-46.13 226.92,-37.34"/>
<polygon fill="black" stroke="black" points="228.9,-34.46 218.65,-31.79 225,-40.27 228.9,-34.46"/>
</g>
<!-- ntq&#45;&gt;xhk -->
<g id="edge22" class="edge">
<title>ntq&#45;&gt;xhk</title>
<path fill="none" stroke="black" d="M273.66,-60.49C271.35,-57.38 268.87,-54.05 266.4,-50.73"/>
<polygon fill="black" stroke="black" points="269.27,-48.72 260.49,-42.79 263.65,-52.9 269.27,-48.72"/>
</g>
<!-- ntq&#45;&gt;hfx -->
<g id="edge23" class="edge">
<title>ntq&#45;&gt;hfx</title>
<path fill="none" stroke="black" d="M260.55,-83.77C260.44,-83.8 260.33,-83.83 260.22,-83.86"/>
<polygon fill="black" stroke="black" points="259.95,-80.3 251.23,-86.31 261.79,-87.06 259.95,-80.3"/>
</g>
<!-- ntq&#45;&gt;bvb -->
<g id="edge24" class="edge">
<title>ntq&#45;&gt;bvb</title>
<path fill="none" stroke="black" d="M273.35,-93.1C272.48,-94.23 271.6,-95.38 270.7,-96.55"/>
<polygon fill="black" stroke="black" points="268.09,-94.21 264.76,-104.27 273.63,-98.47 268.09,-94.21"/>
</g>
<!-- rzs -->
<g id="node15" class="node">
<title>rzs</title>
<ellipse fill="none" stroke="black" cx="145.21" cy="-206.32" rx="27" ry="18"/>
<text text-anchor="middle" x="145.21" y="-202.62" font-family="Times,serif" font-size="14.00">rzs</text>
</g>
<!-- rzs&#45;&gt;rsh -->
<g id="edge29" class="edge">
<title>rzs&#45;&gt;rsh</title>
<path fill="none" stroke="black" d="M122.32,-216.22C122.23,-216.26 122.14,-216.3 122.05,-216.34"/>
<polygon fill="black" stroke="black" points="130.95,-208.67 123.16,-215.85 133.73,-215.09 130.95,-208.67"/>
</g>
<!-- rzs&#45;&gt;lsr -->
<g id="edge30" class="edge">
<title>rzs&#45;&gt;lsr</title>
<path fill="none" stroke="black" d="M122.63,-196.22C120.62,-195.32 118.57,-194.4 116.49,-193.48"/>
<polygon fill="black" stroke="black" points="118.15,-190.38 107.59,-189.5 115.29,-196.77 118.15,-190.38"/>
</g>
<!-- rzs&#45;&gt;cmg -->
<g id="edge27" class="edge">
<title>rzs&#45;&gt;cmg</title>
<path fill="none" stroke="black" d="M147.24,-187.96C148.49,-176.71 150.11,-162.05 151.53,-149.21"/>
<polygon fill="black" stroke="black" points="154.97,-149.91 152.59,-139.58 148.01,-149.14 154.97,-149.91"/>
</g>
<!-- rzs&#45;&gt;qnr -->
<g id="edge28" class="edge">
<title>rzs&#45;&gt;qnr</title>
<path fill="none" stroke="black" d="M133.45,-189.85C126.42,-180.01 117.33,-167.29 109.37,-156.14"/>
<polygon fill="black" stroke="black" points="112.28,-154.2 103.62,-148.1 106.59,-158.27 112.28,-154.2"/>
</g>
</g>
</svg>
